<svg xmlns="http://www.w3.org/2000/svg" xmlns:xlink="http://www.w3.org/1999/xlink" width="1920" zoomAndPan="magnify" viewBox="0 0 1440 809.999993" height="1080" preserveAspectRatio="xMidYMid meet" version="1.0"><defs><g/><clipPath id="ce65e4d6c5"><path d="M 641 83 L 802 83 L 802 239.015625 L 641 239.015625 Z M 641 83 " clip-rule="nonzero"/></clipPath><clipPath id="4d004e37b8"><path d="M 228 0 L 1212 0 L 1212 239.015625 L 228 239.015625 Z M 228 0 " clip-rule="nonzero"/></clipPath></defs><g clip-path="url(#ce65e4d6c5)"><path fill="#df9c05" d="M 721.363281 83.296875 L 641.277344 240.050781 L 801.445312 240.050781 Z M 721.363281 83.296875 " fill-opacity="1" fill-rule="evenodd"/></g><g clip-path="url(#4d004e37b8)"><path fill="#33504a" d="M 243.761719 107.203125 C 243.761719 107.203125 268.277344 183.386719 359.730469 240.050781 L 440.4375 240.050781 C 407.589844 217.882812 385.695312 186.515625 373.214844 149.796875 C 319.890625 132.597656 261.375 101.070312 230.269531 43.351562 C 230.269531 43.351562 211.148438 180.636719 316.328125 240.058594 L 336.308594 240.058594 C 253.769531 176.761719 243.761719 107.210938 243.761719 107.210938 Z M 1196.21875 107.203125 C 1196.21875 107.203125 1171.699219 183.386719 1080.253906 240.050781 L 999.542969 240.050781 C 1032.394531 217.882812 1054.289062 186.515625 1066.765625 149.796875 C 1120.09375 132.597656 1178.605469 101.070312 1209.714844 43.351562 C 1209.714844 43.351562 1228.835938 180.636719 1123.652344 240.058594 L 1103.671875 240.058594 C 1186.214844 176.761719 1196.21875 107.210938 1196.21875 107.210938 Z M 719.992188 51.128906 L 829.445312 240.042969 L 940.234375 240.042969 C 1031.6875 183.378906 1056.199219 107.195312 1056.199219 107.195312 C 1056.199219 107.195312 1046.195312 176.746094 963.652344 240.042969 L 983.632812 240.042969 C 1088.816406 180.621094 1069.695312 43.335938 1069.695312 43.335938 C 1003.441406 166.277344 812.878906 170.371094 812.878906 170.371094 L 719.992188 0.300781 L 627.101562 170.371094 C 627.101562 170.371094 436.546875 166.277344 370.289062 43.335938 C 370.289062 43.335938 351.167969 180.621094 456.347656 240.042969 L 476.328125 240.042969 C 393.789062 176.746094 383.78125 107.195312 383.78125 107.195312 C 383.78125 107.195312 408.304688 183.378906 499.75 240.042969 L 610.535156 240.042969 Z M 542.191406 107.203125 C 542.191406 107.203125 547.925781 125.015625 564.183594 149.824219 L 564.703125 149.921875 L 565.042969 149.984375 L 565.222656 150.015625 L 565.742188 150.113281 L 566.152344 150.195312 L 566.25 150.210938 L 566.769531 150.308594 L 567.265625 150.40625 L 567.289062 150.414062 L 567.808594 150.511719 L 569.355469 150.804688 L 569.488281 150.828125 L 569.867188 150.902344 L 570.90625 151.097656 L 571.425781 151.191406 L 571.707031 151.242188 L 571.9375 151.28125 L 572.453125 151.371094 L 572.820312 151.4375 L 572.972656 151.460938 L 573.492188 151.550781 L 574.488281 151.71875 L 574.578125 151.738281 L 575.570312 151.90625 L 576.085938 151.996094 L 577.644531 152.253906 L 578.683594 152.433594 L 579.203125 152.515625 L 579.519531 152.5625 L 579.71875 152.597656 L 580.238281 152.675781 L 580.628906 152.742188 L 580.757812 152.757812 L 581.277344 152.839844 L 582.308594 153 L 582.316406 153 L 582.835938 153.082031 L 582.859375 153.089844 L 583.351562 153.164062 L 584.390625 153.316406 L 584.910156 153.398438 L 585.089844 153.421875 L 585.421875 153.472656 L 585.941406 153.542969 L 586.199219 153.585938 L 586.460938 153.625 L 586.976562 153.699219 L 587.320312 153.746094 L 587.496094 153.773438 L 588.015625 153.84375 L 588.089844 153.851562 L 588.535156 153.917969 L 589.546875 154.0625 L 589.574219 154.0625 L 590.09375 154.136719 L 590.609375 154.210938 L 590.667969 154.21875 L 591.128906 154.28125 L 592.167969 154.429688 L 592.6875 154.492188 L 593.726562 154.625 L 594.007812 154.664062 L 594.242188 154.695312 L 594.761719 154.761719 L 595.128906 154.808594 L 595.28125 154.824219 L 596.246094 154.949219 L 596.328125 154.957031 L 596.847656 155.019531 L 597.367188 155.085938 C 604.625 155.96875 612.230469 156.789062 619.707031 157.242188 L 632.160156 134.449219 C 591.414062 115.625 552.253906 86.96875 528.738281 43.34375 C 528.738281 43.34375 521.960938 92.039062 538.695312 143.976562 L 538.972656 144.050781 L 539.257812 144.121094 L 539.53125 144.195312 L 539.75 144.25 L 539.808594 144.269531 L 540.082031 144.339844 L 540.652344 144.488281 L 540.847656 144.535156 L 540.933594 144.558594 L 541.503906 144.707031 L 541.785156 144.777344 L 541.949219 144.820312 L 542.070312 144.851562 L 542.355469 144.925781 L 542.636719 144.996094 L 542.921875 145.070312 L 543.050781 145.101562 L 543.199219 145.136719 L 543.480469 145.207031 L 544.050781 145.355469 L 544.144531 145.378906 L 544.324219 145.417969 L 544.609375 145.492188 L 544.890625 145.566406 L 545.175781 145.628906 L 545.25 145.648438 L 545.460938 145.695312 L 545.742188 145.761719 L 546.027344 145.824219 L 546.3125 145.890625 L 546.351562 145.898438 L 546.59375 145.953125 L 547.164062 146.085938 L 547.445312 146.148438 L 547.453125 146.148438 L 547.722656 146.214844 L 548.007812 146.277344 L 548.289062 146.34375 L 548.550781 146.410156 L 548.566406 146.417969 L 548.847656 146.480469 L 549.417969 146.613281 L 549.652344 146.667969 L 549.699219 146.675781 L 549.984375 146.742188 L 550.269531 146.804688 L 550.550781 146.871094 L 550.753906 146.917969 L 550.835938 146.9375 L 551.121094 147 L 551.402344 147.066406 L 551.6875 147.128906 L 551.972656 147.195312 L 552.253906 147.261719 L 552.539062 147.324219 L 552.824219 147.390625 L 553.097656 147.453125 L 553.667969 147.585938 L 553.949219 147.648438 L 554.0625 147.675781 L 554.234375 147.714844 L 554.519531 147.78125 L 554.800781 147.84375 L 555.085938 147.910156 L 555.167969 147.925781 L 555.371094 147.972656 L 555.652344 148.039062 L 555.9375 148.09375 L 556.222656 148.160156 L 556.269531 148.167969 L 556.503906 148.21875 L 556.789062 148.28125 C 544.671875 123.859375 542.273438 107.203125 542.273438 107.203125 Z M 897.78125 107.203125 C 897.78125 107.203125 892.050781 125.015625 875.789062 149.824219 L 875.269531 149.921875 L 874.929688 149.984375 L 874.753906 150.015625 L 874.234375 150.113281 L 873.820312 150.195312 L 873.722656 150.210938 L 873.203125 150.308594 L 872.707031 150.40625 L 872.683594 150.414062 L 872.164062 150.511719 L 871.136719 150.707031 L 870.617188 150.804688 L 870.488281 150.828125 L 870.105469 150.902344 L 869.066406 151.097656 L 868.550781 151.191406 L 868.265625 151.242188 L 868.03125 151.28125 L 867.511719 151.371094 L 867.144531 151.4375 L 866.992188 151.460938 L 866.472656 151.550781 L 865.476562 151.71875 L 865.386719 151.738281 L 864.398438 151.90625 L 863.878906 151.996094 L 862.320312 152.253906 L 861.800781 152.34375 L 861.285156 152.433594 L 860.765625 152.515625 L 860.449219 152.5625 L 860.246094 152.597656 L 859.726562 152.675781 L 859.335938 152.742188 L 859.207031 152.757812 L 858.6875 152.839844 L 857.660156 153 L 857.652344 153 L 857.132812 153.082031 L 857.105469 153.089844 L 856.613281 153.164062 L 855.574219 153.316406 L 855.054688 153.398438 L 854.878906 153.421875 L 854.542969 153.472656 L 854.027344 153.542969 L 853.765625 153.585938 L 853.507812 153.625 L 852.988281 153.699219 L 852.648438 153.746094 L 852.46875 153.773438 L 851.949219 153.84375 L 851.875 153.851562 L 851.429688 153.917969 L 850.417969 154.0625 L 850.394531 154.0625 L 849.355469 154.210938 L 849.296875 154.21875 L 848.835938 154.28125 L 847.796875 154.429688 L 847.277344 154.492188 L 846.761719 154.558594 L 846.242188 154.625 L 845.957031 154.664062 L 845.722656 154.695312 L 845.203125 154.761719 L 844.839844 154.808594 L 844.683594 154.824219 L 843.726562 154.949219 L 843.644531 154.957031 L 843.125 155.019531 L 842.609375 155.085938 C 835.351562 155.96875 827.742188 156.789062 820.265625 157.242188 L 807.8125 134.449219 C 848.558594 115.625 887.71875 86.96875 911.234375 43.34375 C 911.234375 43.34375 918.015625 92.039062 901.277344 143.976562 L 900.992188 144.050781 L 900.710938 144.121094 L 900.433594 144.195312 L 900.214844 144.25 L 900.15625 144.269531 L 899.882812 144.339844 L 899.597656 144.414062 L 899.316406 144.488281 L 899.121094 144.535156 L 899.03125 144.558594 L 898.746094 144.632812 L 898.464844 144.707031 L 898.179688 144.777344 L 898.015625 144.820312 L 897.894531 144.851562 L 897.613281 144.925781 L 897.328125 144.996094 L 897.042969 145.070312 L 896.914062 145.101562 L 896.769531 145.136719 L 896.484375 145.207031 L 896.199219 145.28125 L 895.917969 145.355469 L 895.8125 145.378906 L 895.632812 145.417969 L 895.347656 145.492188 L 895.066406 145.566406 L 894.78125 145.628906 L 894.707031 145.648438 L 894.5 145.695312 L 894.214844 145.761719 L 893.929688 145.824219 L 893.648438 145.890625 L 893.605469 145.898438 L 893.363281 145.953125 L 893.078125 146.019531 L 892.796875 146.085938 L 892.511719 146.148438 L 892.503906 146.148438 L 892.234375 146.214844 L 891.953125 146.277344 L 891.667969 146.34375 L 891.410156 146.410156 L 891.390625 146.417969 L 891.109375 146.480469 L 890.824219 146.546875 L 890.542969 146.613281 L 890.304688 146.667969 L 890.257812 146.675781 L 889.972656 146.742188 L 889.691406 146.804688 L 889.40625 146.871094 L 889.203125 146.917969 L 889.121094 146.9375 L 888.839844 147 L 888.554688 147.066406 L 888.269531 147.128906 L 887.988281 147.195312 L 887.703125 147.261719 L 887.417969 147.324219 L 887.136719 147.390625 L 886.996094 147.421875 L 886.859375 147.453125 L 886.574219 147.519531 L 886.292969 147.585938 L 886.007812 147.648438 L 885.894531 147.675781 L 885.722656 147.714844 L 885.441406 147.78125 L 885.15625 147.84375 L 884.875 147.910156 L 884.792969 147.925781 L 884.589844 147.972656 L 884.304688 148.039062 L 884.023438 148.09375 L 883.738281 148.160156 L 883.6875 148.167969 L 883.453125 148.21875 L 883.171875 148.28125 C 895.285156 123.859375 897.6875 107.203125 897.6875 107.203125 Z M 897.78125 107.203125 " fill-opacity="1" fill-rule="evenodd"/></g><g fill="#33504a" fill-opacity="1"><g transform="translate(65.638463, 622.855594)"><g><path d="M 66.6875 -125.484375 L 96.4375 -125.484375 L 96.4375 -41.234375 C 96.4375 -29.273438 93.445312 -19.410156 87.46875 -11.640625 C 81.5 -3.878906 71.109375 0 56.296875 0 L 50.90625 0 C 35.613281 0 25.097656 -3.878906 19.359375 -11.640625 C 13.617188 -19.410156 10.75 -29.273438 10.75 -41.234375 L 10.75 -298.296875 C 10.75 -310.484375 13.617188 -320.398438 19.359375 -328.046875 C 25.097656 -335.703125 35.613281 -339.53125 50.90625 -339.53125 L 56.296875 -339.53125 C 71.109375 -339.53125 81.5 -335.703125 87.46875 -328.046875 C 93.445312 -320.398438 96.4375 -310.484375 96.4375 -298.296875 L 96.4375 -214.046875 L 66.6875 -214.046875 L 66.6875 -294.359375 C 66.6875 -298.421875 65.847656 -302.003906 64.171875 -305.109375 C 62.503906 -308.210938 58.921875 -309.765625 53.421875 -309.765625 C 47.921875 -309.765625 44.394531 -308.210938 42.84375 -305.109375 C 41.289062 -302.003906 40.515625 -298.421875 40.515625 -294.359375 L 40.515625 -45.171875 C 40.515625 -41.109375 41.289062 -37.523438 42.84375 -34.421875 C 44.394531 -31.316406 47.921875 -29.765625 53.421875 -29.765625 C 58.921875 -29.765625 62.503906 -31.316406 64.171875 -34.421875 C 65.847656 -37.523438 66.6875 -41.109375 66.6875 -45.171875 Z M 66.6875 -125.484375 "/></g></g></g><g fill="#33504a" fill-opacity="1"><g transform="translate(169.252059, 622.855594)"><g><path d="M 36.921875 0 L 9.328125 0 L 26.890625 -334.875 L 77.4375 -334.875 L 95.015625 0 L 67.40625 0 L 63.8125 -69.90625 C 62.863281 -68.71875 62.03125 -67.523438 61.3125 -66.328125 C 60.59375 -65.128906 59.753906 -63.9375 58.796875 -62.75 C 52.585938 -54.375 48.046875 -47.4375 45.171875 -41.9375 C 42.304688 -36.445312 40.394531 -31.128906 39.4375 -25.984375 C 38.476562 -20.847656 37.757812 -14.457031 37.28125 -6.8125 Z M 41.59375 -90.34375 C 46.851562 -97.757812 50.796875 -103.914062 53.421875 -108.8125 C 56.046875 -113.71875 57.773438 -118.554688 58.609375 -123.328125 C 59.453125 -128.109375 59.875 -134.207031 59.875 -141.625 L 51.984375 -290.046875 Z M 41.59375 -90.34375 "/></g></g></g><g fill="#33504a" fill-opacity="1"><g transform="translate(271.4316, 622.855594)"><g><path d="M 10.75 -334.875 L 40.15625 -334.875 L 40.15625 -176.03125 C 40.875 -176.75 41.53125 -177.523438 42.125 -178.359375 C 42.726562 -179.203125 43.265625 -179.984375 43.734375 -180.703125 C 49.953125 -189.304688 54.734375 -196.472656 58.078125 -202.203125 C 61.421875 -207.941406 63.691406 -213.617188 64.890625 -219.234375 C 66.085938 -224.859375 66.6875 -231.492188 66.6875 -239.140625 L 66.6875 -334.875 L 96.4375 -334.875 L 96.4375 0 L 66.6875 0 L 66.6875 -161.34375 C 66.207031 -160.625 65.726562 -159.960938 65.25 -159.359375 C 64.769531 -158.765625 64.289062 -158.109375 63.8125 -157.390625 C 57.601562 -149.023438 52.820312 -141.972656 49.46875 -136.234375 C 46.125 -130.503906 43.796875 -124.945312 42.484375 -119.5625 C 41.171875 -114.1875 40.515625 -107.675781 40.515625 -100.03125 L 40.15625 0 L 10.75 0 Z M 10.75 -334.875 "/></g></g></g><g fill="#33504a" fill-opacity="1"><g transform="translate(375.403744, 622.855594)"><g><path d="M 36.921875 0 L 9.328125 0 L 26.890625 -334.875 L 77.4375 -334.875 L 95.015625 0 L 67.40625 0 L 63.8125 -69.90625 C 62.863281 -68.71875 62.03125 -67.523438 61.3125 -66.328125 C 60.59375 -65.128906 59.753906 -63.9375 58.796875 -62.75 C 52.585938 -54.375 48.046875 -47.4375 45.171875 -41.9375 C 42.304688 -36.445312 40.394531 -31.128906 39.4375 -25.984375 C 38.476562 -20.847656 37.757812 -14.457031 37.28125 -6.8125 Z M 41.59375 -90.34375 C 46.851562 -97.757812 50.796875 -103.914062 53.421875 -108.8125 C 56.046875 -113.71875 57.773438 -118.554688 58.609375 -123.328125 C 59.453125 -128.109375 59.875 -134.207031 59.875 -141.625 L 51.984375 -290.046875 Z M 41.59375 -90.34375 "/></g></g></g><g fill="#33504a" fill-opacity="1"><g transform="translate(477.583293, 622.855594)"><g><path d="M 65.609375 -334.875 L 95.375 -334.875 L 95.375 0 L 65.609375 0 C 65.609375 0 65.609375 -2.390625 65.609375 -7.171875 C 65.609375 -11.953125 65.609375 -18.164062 65.609375 -25.8125 C 65.609375 -33.457031 65.609375 -41.582031 65.609375 -50.1875 C 65.609375 -58.789062 65.609375 -66.914062 65.609375 -74.5625 C 65.609375 -82.21875 65.609375 -88.4375 65.609375 -93.21875 C 65.609375 -98 65.609375 -100.390625 65.609375 -100.390625 C 65.609375 -107.796875 64.953125 -114.128906 63.640625 -119.390625 C 62.328125 -124.648438 59.992188 -130.144531 56.640625 -135.875 C 53.296875 -141.613281 48.519531 -148.664062 42.3125 -157.03125 C 35.851562 -166.113281 30.53125 -173.941406 26.34375 -180.515625 C 22.164062 -187.085938 18.820312 -193.363281 16.3125 -199.34375 C 13.800781 -205.320312 12.066406 -211.71875 11.109375 -218.53125 C 10.160156 -225.34375 9.6875 -233.40625 9.6875 -242.71875 L 9.6875 -334.875 L 39.4375 -334.875 L 39.4375 -239.140625 C 39.4375 -231.253906 40.035156 -224.5625 41.234375 -219.0625 C 42.429688 -213.5625 44.703125 -207.882812 48.046875 -202.03125 C 51.390625 -196.175781 56.171875 -188.945312 62.390625 -180.34375 C 62.859375 -179.625 63.390625 -178.84375 63.984375 -178 C 64.585938 -177.164062 65.128906 -176.394531 65.609375 -175.6875 Z M 65.609375 -334.875 "/></g></g></g><g fill="#33504a" fill-opacity="1"><g transform="translate(580.12134, 622.855594)"><g><path d="M 36.921875 0 L 9.328125 0 L 26.890625 -334.875 L 77.4375 -334.875 L 95.015625 0 L 67.40625 0 L 63.8125 -69.90625 C 62.863281 -68.71875 62.03125 -67.523438 61.3125 -66.328125 C 60.59375 -65.128906 59.753906 -63.9375 58.796875 -62.75 C 52.585938 -54.375 48.046875 -47.4375 45.171875 -41.9375 C 42.304688 -36.445312 40.394531 -31.128906 39.4375 -25.984375 C 38.476562 -20.847656 37.757812 -14.457031 37.28125 -6.8125 Z M 41.59375 -90.34375 C 46.851562 -97.757812 50.796875 -103.914062 53.421875 -108.8125 C 56.046875 -113.71875 57.773438 -118.554688 58.609375 -123.328125 C 59.453125 -128.109375 59.875 -134.207031 59.875 -141.625 L 51.984375 -290.046875 Z M 41.59375 -90.34375 "/></g></g></g><g fill="#33504a" fill-opacity="1"><g transform="translate(682.30086, 622.855594)"><g/></g></g><g fill="#33504a" fill-opacity="1"><g transform="translate(750.420539, 622.855594)"><g><path d="M 152.375 0 L 122.625 0 L 124.40625 -295.78125 L 96.4375 0 L 66.6875 0 L 38.71875 -295.78125 L 40.515625 0 L 10.75 0 L 10.75 -334.875 L 66.6875 -334.875 L 81.390625 -124.765625 L 96.4375 -334.875 L 152.375 -334.875 Z M 152.375 0 "/></g></g></g><g fill="#33504a" fill-opacity="1"><g transform="translate(909.964034, 622.855594)"><g><path d="M 10.75 -334.875 L 40.515625 -334.875 L 40.515625 0 L 10.75 0 Z M 10.75 -334.875 "/></g></g></g><g fill="#33504a" fill-opacity="1"><g transform="translate(957.647799, 622.855594)"><g><path d="M 67.40625 -334.875 L 96.4375 -334.875 L 96.4375 0 L 67.40625 0 L 39.078125 -183.921875 L 39.078125 0 L 10.75 0 L 10.75 -334.875 L 39.078125 -334.875 L 67.40625 -153.8125 Z M 67.40625 -334.875 "/></g></g></g><g fill="#33504a" fill-opacity="1"><g transform="translate(1061.261372, 622.855594)"><g><path d="M 36.921875 0 L 9.328125 0 L 26.890625 -334.875 L 77.4375 -334.875 L 95.015625 0 L 67.40625 0 L 63.8125 -69.90625 C 62.863281 -68.71875 62.03125 -67.523438 61.3125 -66.328125 C 60.59375 -65.128906 59.753906 -63.9375 58.796875 -62.75 C 52.585938 -54.375 48.046875 -47.4375 45.171875 -41.9375 C 42.304688 -36.445312 40.394531 -31.128906 39.4375 -25.984375 C 38.476562 -20.847656 37.757812 -14.457031 37.28125 -6.8125 Z M 41.59375 -90.34375 C 46.851562 -97.757812 50.796875 -103.914062 53.421875 -108.8125 C 56.046875 -113.71875 57.773438 -118.554688 58.609375 -123.328125 C 59.453125 -128.109375 59.875 -134.207031 59.875 -141.625 L 51.984375 -290.046875 Z M 41.59375 -90.34375 "/></g></g></g><g fill="#33504a" fill-opacity="1"><g transform="translate(1163.440892, 622.855594)"><g><path d="M 67.40625 -334.875 L 96.4375 -334.875 L 96.4375 0 L 67.40625 0 L 39.078125 -183.921875 L 39.078125 0 L 10.75 0 L 10.75 -334.875 L 39.078125 -334.875 L 67.40625 -153.8125 Z M 67.40625 -334.875 "/></g></g></g><g fill="#33504a" fill-opacity="1"><g transform="translate(1267.054521, 622.855594)"><g><path d="M 96.4375 -155.25 L 96.4375 -41.234375 C 96.4375 -29.273438 93.507812 -19.410156 87.65625 -11.640625 C 81.800781 -3.878906 71.347656 0 56.296875 0 L 50.90625 0 C 35.613281 0 25.097656 -3.878906 19.359375 -11.640625 C 13.617188 -19.410156 10.75 -29.273438 10.75 -41.234375 L 10.75 -298.296875 C 10.75 -310.484375 13.617188 -320.398438 19.359375 -328.046875 C 25.097656 -335.703125 35.613281 -339.53125 50.90625 -339.53125 L 56.296875 -339.53125 C 71.347656 -339.53125 81.800781 -335.703125 87.65625 -328.046875 C 93.507812 -320.398438 96.4375 -310.484375 96.4375 -298.296875 L 96.4375 -214.046875 L 66.6875 -214.046875 L 66.6875 -294.359375 C 66.6875 -298.421875 65.910156 -302.003906 64.359375 -305.109375 C 62.804688 -308.210938 59.160156 -309.765625 53.421875 -309.765625 C 47.921875 -309.765625 44.394531 -308.210938 42.84375 -305.109375 C 41.289062 -302.003906 40.515625 -298.421875 40.515625 -294.359375 L 40.515625 -45.171875 C 40.515625 -41.109375 41.289062 -37.523438 42.84375 -34.421875 C 44.394531 -31.316406 47.921875 -29.765625 53.421875 -29.765625 C 59.160156 -29.765625 62.804688 -31.316406 64.359375 -34.421875 C 65.910156 -37.523438 66.6875 -41.109375 66.6875 -45.171875 L 66.6875 -125.484375 L 53.78125 -125.484375 L 53.78125 -155.25 Z M 96.4375 -155.25 "/></g></g></g><g fill="#df9c05" fill-opacity="1"><g transform="translate(172.260505, 788.09013)"><g><path d="M 34.171875 0 L 21.90625 -21.671875 L 16.640625 -21.671875 L 16.640625 0 L 5.5 0 L 5.5 -55.59375 L 26.359375 -55.59375 C 30.660156 -55.59375 34.328125 -54.835938 37.359375 -53.328125 C 40.390625 -51.816406 42.660156 -49.769531 44.171875 -47.1875 C 45.679688 -44.613281 46.4375 -41.734375 46.4375 -38.546875 C 46.4375 -34.890625 45.375 -31.585938 43.25 -28.640625 C 41.125 -25.691406 37.96875 -23.660156 33.78125 -22.546875 L 47.078125 0 Z M 16.640625 -30.03125 L 25.96875 -30.03125 C 29 -30.03125 31.253906 -30.757812 32.734375 -32.21875 C 34.222656 -33.675781 34.96875 -35.707031 34.96875 -38.3125 C 34.96875 -40.863281 34.222656 -42.84375 32.734375 -44.25 C 31.253906 -45.65625 29 -46.359375 25.96875 -46.359375 L 16.640625 -46.359375 Z M 16.640625 -30.03125 "/></g></g></g><g fill="#df9c05" fill-opacity="1"><g transform="translate(223.318125, 788.09013)"><g><path d="M 46.515625 -23.015625 C 46.515625 -21.421875 46.410156 -19.988281 46.203125 -18.71875 L 13.9375 -18.71875 C 14.207031 -15.53125 15.320312 -13.03125 17.28125 -11.21875 C 19.25 -9.414062 21.664062 -8.515625 24.53125 -8.515625 C 28.675781 -8.515625 31.625 -10.296875 33.375 -13.859375 L 45.40625 -13.859375 C 44.132812 -9.609375 41.691406 -6.113281 38.078125 -3.375 C 34.460938 -0.644531 30.023438 0.71875 24.765625 0.71875 C 20.523438 0.71875 16.71875 -0.222656 13.34375 -2.109375 C 9.96875 -3.992188 7.335938 -6.660156 5.453125 -10.109375 C 3.566406 -13.566406 2.625 -17.550781 2.625 -22.0625 C 2.625 -26.632812 3.550781 -30.644531 5.40625 -34.09375 C 7.269531 -37.539062 9.875 -40.191406 13.21875 -42.046875 C 16.5625 -43.910156 20.410156 -44.84375 24.765625 -44.84375 C 28.960938 -44.84375 32.71875 -43.941406 36.03125 -42.140625 C 39.351562 -40.335938 41.929688 -37.773438 43.765625 -34.453125 C 45.597656 -31.128906 46.515625 -27.316406 46.515625 -23.015625 Z M 34.96875 -26.203125 C 34.914062 -29.078125 33.878906 -31.375 31.859375 -33.09375 C 29.835938 -34.820312 27.367188 -35.6875 24.453125 -35.6875 C 21.691406 -35.6875 19.367188 -34.847656 17.484375 -33.171875 C 15.597656 -31.503906 14.441406 -29.179688 14.015625 -26.203125 Z M 34.96875 -26.203125 "/></g></g></g><g fill="#df9c05" fill-opacity="1"><g transform="translate(272.464036, 788.09013)"><g><path d="M 22.390625 0.71875 C 18.773438 0.71875 15.53125 0.0664062 12.65625 -1.234375 C 9.789062 -2.535156 7.519531 -4.300781 5.84375 -6.53125 C 4.175781 -8.757812 3.265625 -11.226562 3.109375 -13.9375 L 14.34375 -13.9375 C 14.550781 -12.238281 15.382812 -10.832031 16.84375 -9.71875 C 18.300781 -8.601562 20.117188 -8.046875 22.296875 -8.046875 C 24.421875 -8.046875 26.082031 -8.46875 27.28125 -9.3125 C 28.476562 -10.164062 29.078125 -11.253906 29.078125 -12.578125 C 29.078125 -14.015625 28.34375 -15.09375 26.875 -15.8125 C 25.414062 -16.53125 23.097656 -17.3125 19.921875 -18.15625 C 16.617188 -18.957031 13.921875 -19.78125 11.828125 -20.625 C 9.734375 -21.476562 7.925781 -22.78125 6.40625 -24.53125 C 4.894531 -26.28125 4.140625 -28.644531 4.140625 -31.625 C 4.140625 -34.0625 4.84375 -36.289062 6.25 -38.3125 C 7.65625 -40.332031 9.671875 -41.925781 12.296875 -43.09375 C 14.929688 -44.257812 18.03125 -44.84375 21.59375 -44.84375 C 26.84375 -44.84375 31.035156 -43.523438 34.171875 -40.890625 C 37.304688 -38.265625 39.03125 -34.722656 39.34375 -30.265625 L 28.671875 -30.265625 C 28.515625 -32.015625 27.785156 -33.40625 26.484375 -34.4375 C 25.179688 -35.476562 23.441406 -36 21.265625 -36 C 19.242188 -36 17.6875 -35.628906 16.59375 -34.890625 C 15.507812 -34.148438 14.96875 -33.113281 14.96875 -31.78125 C 14.96875 -30.289062 15.710938 -29.160156 17.203125 -28.390625 C 18.691406 -27.628906 21.003906 -26.847656 24.140625 -26.046875 C 27.328125 -25.253906 29.953125 -24.429688 32.015625 -23.578125 C 34.085938 -22.722656 35.878906 -21.40625 37.390625 -19.625 C 38.910156 -17.851562 39.695312 -15.503906 39.75 -12.578125 C 39.75 -10.035156 39.046875 -7.753906 37.640625 -5.734375 C 36.234375 -3.710938 34.210938 -2.128906 31.578125 -0.984375 C 28.953125 0.148438 25.890625 0.71875 22.390625 0.71875 Z M 22.390625 0.71875 "/></g></g></g><g fill="#df9c05" fill-opacity="1"><g transform="translate(315.874935, 788.09013)"><g><path d="M 18.484375 -34.96875 L 18.484375 -13.625 C 18.484375 -12.132812 18.835938 -11.054688 19.546875 -10.390625 C 20.265625 -9.734375 21.476562 -9.40625 23.1875 -9.40625 L 28.359375 -9.40625 L 28.359375 0 L 21.34375 0 C 11.945312 0 7.25 -4.566406 7.25 -13.703125 L 7.25 -34.96875 L 1.984375 -34.96875 L 1.984375 -44.125 L 7.25 -44.125 L 7.25 -55.046875 L 18.484375 -55.046875 L 18.484375 -44.125 L 28.359375 -44.125 L 28.359375 -34.96875 Z M 18.484375 -34.96875 "/></g></g></g><g fill="#df9c05" fill-opacity="1"><g transform="translate(346.780315, 788.09013)"><g><path d="M 25.09375 0.71875 C 20.84375 0.71875 17.015625 -0.222656 13.609375 -2.109375 C 10.210938 -3.992188 7.546875 -6.660156 5.609375 -10.109375 C 3.671875 -13.566406 2.703125 -17.550781 2.703125 -22.0625 C 2.703125 -26.570312 3.695312 -30.550781 5.6875 -34 C 7.6875 -37.457031 10.410156 -40.128906 13.859375 -42.015625 C 17.304688 -43.898438 21.15625 -44.84375 25.40625 -44.84375 C 29.65625 -44.84375 33.503906 -43.898438 36.953125 -42.015625 C 40.410156 -40.128906 43.132812 -37.457031 45.125 -34 C 47.113281 -30.550781 48.109375 -26.570312 48.109375 -22.0625 C 48.109375 -17.550781 47.085938 -13.566406 45.046875 -10.109375 C 43.003906 -6.660156 40.242188 -3.992188 36.765625 -2.109375 C 33.285156 -0.222656 29.394531 0.71875 25.09375 0.71875 Z M 25.09375 -9 C 27.113281 -9 29.007812 -9.488281 30.78125 -10.46875 C 32.5625 -11.457031 33.984375 -12.929688 35.046875 -14.890625 C 36.109375 -16.859375 36.640625 -19.25 36.640625 -22.0625 C 36.640625 -26.257812 35.535156 -29.484375 33.328125 -31.734375 C 31.128906 -33.992188 28.4375 -35.125 25.25 -35.125 C 22.0625 -35.125 19.390625 -33.992188 17.234375 -31.734375 C 15.085938 -29.484375 14.015625 -26.257812 14.015625 -22.0625 C 14.015625 -17.863281 15.0625 -14.632812 17.15625 -12.375 C 19.257812 -10.125 21.90625 -9 25.09375 -9 Z M 25.09375 -9 "/></g></g></g><g fill="#df9c05" fill-opacity="1"><g transform="translate(397.598936, 788.09013)"><g><path d="M 16.640625 -37.28125 C 18.078125 -39.613281 19.953125 -41.441406 22.265625 -42.765625 C 24.578125 -44.097656 27.21875 -44.765625 30.1875 -44.765625 L 30.1875 -33.0625 L 27.25 -33.0625 C 23.738281 -33.0625 21.09375 -32.238281 19.3125 -30.59375 C 17.53125 -28.945312 16.640625 -26.078125 16.640625 -21.984375 L 16.640625 0 L 5.5 0 L 5.5 -44.125 L 16.640625 -44.125 Z M 16.640625 -37.28125 "/></g></g></g><g fill="#df9c05" fill-opacity="1"><g transform="translate(429.778752, 788.09013)"><g><path d="M 2.625 -22.21875 C 2.625 -26.6875 3.515625 -30.644531 5.296875 -34.09375 C 7.078125 -37.539062 9.492188 -40.191406 12.546875 -42.046875 C 15.597656 -43.910156 19.007812 -44.84375 22.78125 -44.84375 C 26.070312 -44.84375 28.953125 -44.175781 31.421875 -42.84375 C 33.890625 -41.519531 35.867188 -39.851562 37.359375 -37.84375 L 37.359375 -44.125 L 48.59375 -44.125 L 48.59375 0 L 37.359375 0 L 37.359375 -6.453125 C 35.921875 -4.378906 33.941406 -2.664062 31.421875 -1.3125 C 28.898438 0.0390625 25.992188 0.71875 22.703125 0.71875 C 18.984375 0.71875 15.597656 -0.234375 12.546875 -2.140625 C 9.492188 -4.054688 7.078125 -6.753906 5.296875 -10.234375 C 3.515625 -13.710938 2.625 -17.707031 2.625 -22.21875 Z M 37.359375 -22.0625 C 37.359375 -24.769531 36.828125 -27.09375 35.765625 -29.03125 C 34.703125 -30.96875 33.265625 -32.453125 31.453125 -33.484375 C 29.648438 -34.523438 27.71875 -35.046875 25.65625 -35.046875 C 23.582031 -35.046875 21.664062 -34.539062 19.90625 -33.53125 C 18.15625 -32.519531 16.734375 -31.046875 15.640625 -29.109375 C 14.554688 -27.171875 14.015625 -24.875 14.015625 -22.21875 C 14.015625 -19.5625 14.554688 -17.238281 15.640625 -15.25 C 16.734375 -13.257812 18.171875 -11.734375 19.953125 -10.671875 C 21.734375 -9.609375 23.632812 -9.078125 25.65625 -9.078125 C 27.71875 -9.078125 29.648438 -9.59375 31.453125 -10.625 C 33.265625 -11.664062 34.703125 -13.15625 35.765625 -15.09375 C 36.828125 -17.03125 37.359375 -19.351562 37.359375 -22.0625 Z M 37.359375 -22.0625 "/></g></g></g><g fill="#df9c05" fill-opacity="1"><g transform="translate(483.783516, 788.09013)"><g><path d="M 29.953125 -44.765625 C 35.210938 -44.765625 39.460938 -43.101562 42.703125 -39.78125 C 45.941406 -36.46875 47.5625 -31.835938 47.5625 -25.890625 L 47.5625 0 L 36.40625 0 L 36.40625 -24.375 C 36.40625 -27.875 35.523438 -30.566406 33.765625 -32.453125 C 32.015625 -34.335938 29.628906 -35.28125 26.609375 -35.28125 C 23.523438 -35.28125 21.09375 -34.335938 19.3125 -32.453125 C 17.53125 -30.566406 16.640625 -27.875 16.640625 -24.375 L 16.640625 0 L 5.5 0 L 5.5 -44.125 L 16.640625 -44.125 L 16.640625 -38.640625 C 18.128906 -40.546875 20.03125 -42.039062 22.34375 -43.125 C 24.65625 -44.21875 27.191406 -44.765625 29.953125 -44.765625 Z M 29.953125 -44.765625 "/></g></g></g><g fill="#df9c05" fill-opacity="1"><g transform="translate(536.43418, 788.09013)"><g/></g></g><g fill="#df9c05" fill-opacity="1"><g transform="translate(555.391594, 788.09013)"><g><path d="M 66.109375 -55.59375 L 66.109375 0 L 54.96875 0 L 54.96875 -36.15625 L 40.0625 0 L 31.625 0 L 16.640625 -36.15625 L 16.640625 0 L 5.5 0 L 5.5 -55.59375 L 18.15625 -55.59375 L 35.84375 -14.265625 L 53.53125 -55.59375 Z M 66.109375 -55.59375 "/></g></g></g><g fill="#df9c05" fill-opacity="1"><g transform="translate(626.999671, 788.09013)"><g><path d="M 2.625 -22.21875 C 2.625 -26.6875 3.515625 -30.644531 5.296875 -34.09375 C 7.078125 -37.539062 9.492188 -40.191406 12.546875 -42.046875 C 15.597656 -43.910156 19.007812 -44.84375 22.78125 -44.84375 C 26.070312 -44.84375 28.953125 -44.175781 31.421875 -42.84375 C 33.890625 -41.519531 35.867188 -39.851562 37.359375 -37.84375 L 37.359375 -44.125 L 48.59375 -44.125 L 48.59375 0 L 37.359375 0 L 37.359375 -6.453125 C 35.921875 -4.378906 33.941406 -2.664062 31.421875 -1.3125 C 28.898438 0.0390625 25.992188 0.71875 22.703125 0.71875 C 18.984375 0.71875 15.597656 -0.234375 12.546875 -2.140625 C 9.492188 -4.054688 7.078125 -6.753906 5.296875 -10.234375 C 3.515625 -13.710938 2.625 -17.707031 2.625 -22.21875 Z M 37.359375 -22.0625 C 37.359375 -24.769531 36.828125 -27.09375 35.765625 -29.03125 C 34.703125 -30.96875 33.265625 -32.453125 31.453125 -33.484375 C 29.648438 -34.523438 27.71875 -35.046875 25.65625 -35.046875 C 23.582031 -35.046875 21.664062 -34.539062 19.90625 -33.53125 C 18.15625 -32.519531 16.734375 -31.046875 15.640625 -29.109375 C 14.554688 -27.171875 14.015625 -24.875 14.015625 -22.21875 C 14.015625 -19.5625 14.554688 -17.238281 15.640625 -15.25 C 16.734375 -13.257812 18.171875 -11.734375 19.953125 -10.671875 C 21.734375 -9.609375 23.632812 -9.078125 25.65625 -9.078125 C 27.71875 -9.078125 29.648438 -9.59375 31.453125 -10.625 C 33.265625 -11.664062 34.703125 -13.15625 35.765625 -15.09375 C 36.828125 -17.03125 37.359375 -19.351562 37.359375 -22.0625 Z M 37.359375 -22.0625 "/></g></g></g><g fill="#df9c05" fill-opacity="1"><g transform="translate(681.004435, 788.09013)"><g><path d="M 22.390625 0.71875 C 18.773438 0.71875 15.53125 0.0664062 12.65625 -1.234375 C 9.789062 -2.535156 7.519531 -4.300781 5.84375 -6.53125 C 4.175781 -8.757812 3.265625 -11.226562 3.109375 -13.9375 L 14.34375 -13.9375 C 14.550781 -12.238281 15.382812 -10.832031 16.84375 -9.71875 C 18.300781 -8.601562 20.117188 -8.046875 22.296875 -8.046875 C 24.421875 -8.046875 26.082031 -8.46875 27.28125 -9.3125 C 28.476562 -10.164062 29.078125 -11.253906 29.078125 -12.578125 C 29.078125 -14.015625 28.34375 -15.09375 26.875 -15.8125 C 25.414062 -16.53125 23.097656 -17.3125 19.921875 -18.15625 C 16.617188 -18.957031 13.921875 -19.78125 11.828125 -20.625 C 9.734375 -21.476562 7.925781 -22.78125 6.40625 -24.53125 C 4.894531 -26.28125 4.140625 -28.644531 4.140625 -31.625 C 4.140625 -34.0625 4.84375 -36.289062 6.25 -38.3125 C 7.65625 -40.332031 9.671875 -41.925781 12.296875 -43.09375 C 14.929688 -44.257812 18.03125 -44.84375 21.59375 -44.84375 C 26.84375 -44.84375 31.035156 -43.523438 34.171875 -40.890625 C 37.304688 -38.265625 39.03125 -34.722656 39.34375 -30.265625 L 28.671875 -30.265625 C 28.515625 -32.015625 27.785156 -33.40625 26.484375 -34.4375 C 25.179688 -35.476562 23.441406 -36 21.265625 -36 C 19.242188 -36 17.6875 -35.628906 16.59375 -34.890625 C 15.507812 -34.148438 14.96875 -33.113281 14.96875 -31.78125 C 14.96875 -30.289062 15.710938 -29.160156 17.203125 -28.390625 C 18.691406 -27.628906 21.003906 -26.847656 24.140625 -26.046875 C 27.328125 -25.253906 29.953125 -24.429688 32.015625 -23.578125 C 34.085938 -22.722656 35.878906 -21.40625 37.390625 -19.625 C 38.910156 -17.851562 39.695312 -15.503906 39.75 -12.578125 C 39.75 -10.035156 39.046875 -7.753906 37.640625 -5.734375 C 36.234375 -3.710938 34.210938 -2.128906 31.578125 -0.984375 C 28.953125 0.148438 25.890625 0.71875 22.390625 0.71875 Z M 22.390625 0.71875 "/></g></g></g><g fill="#df9c05" fill-opacity="1"><g transform="translate(724.415334, 788.09013)"><g><path d="M 2.625 -22.21875 C 2.625 -26.6875 3.515625 -30.644531 5.296875 -34.09375 C 7.078125 -37.539062 9.492188 -40.191406 12.546875 -42.046875 C 15.597656 -43.910156 19.007812 -44.84375 22.78125 -44.84375 C 26.070312 -44.84375 28.953125 -44.175781 31.421875 -42.84375 C 33.890625 -41.519531 35.867188 -39.851562 37.359375 -37.84375 L 37.359375 -44.125 L 48.59375 -44.125 L 48.59375 0 L 37.359375 0 L 37.359375 -6.453125 C 35.921875 -4.378906 33.941406 -2.664062 31.421875 -1.3125 C 28.898438 0.0390625 25.992188 0.71875 22.703125 0.71875 C 18.984375 0.71875 15.597656 -0.234375 12.546875 -2.140625 C 9.492188 -4.054688 7.078125 -6.753906 5.296875 -10.234375 C 3.515625 -13.710938 2.625 -17.707031 2.625 -22.21875 Z M 37.359375 -22.0625 C 37.359375 -24.769531 36.828125 -27.09375 35.765625 -29.03125 C 34.703125 -30.96875 33.265625 -32.453125 31.453125 -33.484375 C 29.648438 -34.523438 27.71875 -35.046875 25.65625 -35.046875 C 23.582031 -35.046875 21.664062 -34.539062 19.90625 -33.53125 C 18.15625 -32.519531 16.734375 -31.046875 15.640625 -29.109375 C 14.554688 -27.171875 14.015625 -24.875 14.015625 -22.21875 C 14.015625 -19.5625 14.554688 -17.238281 15.640625 -15.25 C 16.734375 -13.257812 18.171875 -11.734375 19.953125 -10.671875 C 21.734375 -9.609375 23.632812 -9.078125 25.65625 -9.078125 C 27.71875 -9.078125 29.648438 -9.59375 31.453125 -10.625 C 33.265625 -11.664062 34.703125 -13.15625 35.765625 -15.09375 C 36.828125 -17.03125 37.359375 -19.351562 37.359375 -22.0625 Z M 37.359375 -22.0625 "/></g></g></g><g fill="#df9c05" fill-opacity="1"><g transform="translate(778.420098, 788.09013)"><g><path d="M 31.625 0 L 16.640625 -18.796875 L 16.640625 0 L 5.5 0 L 5.5 -58.953125 L 16.640625 -58.953125 L 16.640625 -25.40625 L 31.46875 -44.125 L 45.96875 -44.125 L 26.53125 -21.984375 L 46.125 0 Z M 31.625 0 "/></g></g></g><g fill="#df9c05" fill-opacity="1"><g transform="translate(824.937474, 788.09013)"><g><path d="M 2.625 -22.21875 C 2.625 -26.6875 3.515625 -30.644531 5.296875 -34.09375 C 7.078125 -37.539062 9.492188 -40.191406 12.546875 -42.046875 C 15.597656 -43.910156 19.007812 -44.84375 22.78125 -44.84375 C 26.070312 -44.84375 28.953125 -44.175781 31.421875 -42.84375 C 33.890625 -41.519531 35.867188 -39.851562 37.359375 -37.84375 L 37.359375 -44.125 L 48.59375 -44.125 L 48.59375 0 L 37.359375 0 L 37.359375 -6.453125 C 35.921875 -4.378906 33.941406 -2.664062 31.421875 -1.3125 C 28.898438 0.0390625 25.992188 0.71875 22.703125 0.71875 C 18.984375 0.71875 15.597656 -0.234375 12.546875 -2.140625 C 9.492188 -4.054688 7.078125 -6.753906 5.296875 -10.234375 C 3.515625 -13.710938 2.625 -17.707031 2.625 -22.21875 Z M 37.359375 -22.0625 C 37.359375 -24.769531 36.828125 -27.09375 35.765625 -29.03125 C 34.703125 -30.96875 33.265625 -32.453125 31.453125 -33.484375 C 29.648438 -34.523438 27.71875 -35.046875 25.65625 -35.046875 C 23.582031 -35.046875 21.664062 -34.539062 19.90625 -33.53125 C 18.15625 -32.519531 16.734375 -31.046875 15.640625 -29.109375 C 14.554688 -27.171875 14.015625 -24.875 14.015625 -22.21875 C 14.015625 -19.5625 14.554688 -17.238281 15.640625 -15.25 C 16.734375 -13.257812 18.171875 -11.734375 19.953125 -10.671875 C 21.734375 -9.609375 23.632812 -9.078125 25.65625 -9.078125 C 27.71875 -9.078125 29.648438 -9.59375 31.453125 -10.625 C 33.265625 -11.664062 34.703125 -13.15625 35.765625 -15.09375 C 36.828125 -17.03125 37.359375 -19.351562 37.359375 -22.0625 Z M 37.359375 -22.0625 "/></g></g></g><g fill="#df9c05" fill-opacity="1"><g transform="translate(878.942238, 788.09013)"><g><path d="M 29.953125 -44.765625 C 35.210938 -44.765625 39.460938 -43.101562 42.703125 -39.78125 C 45.941406 -36.46875 47.5625 -31.835938 47.5625 -25.890625 L 47.5625 0 L 36.40625 0 L 36.40625 -24.375 C 36.40625 -27.875 35.523438 -30.566406 33.765625 -32.453125 C 32.015625 -34.335938 29.628906 -35.28125 26.609375 -35.28125 C 23.523438 -35.28125 21.09375 -34.335938 19.3125 -32.453125 C 17.53125 -30.566406 16.640625 -27.875 16.640625 -24.375 L 16.640625 0 L 5.5 0 L 5.5 -44.125 L 16.640625 -44.125 L 16.640625 -38.640625 C 18.128906 -40.546875 20.03125 -42.039062 22.34375 -43.125 C 24.65625 -44.21875 27.191406 -44.765625 29.953125 -44.765625 Z M 29.953125 -44.765625 "/></g></g></g><g fill="#df9c05" fill-opacity="1"><g transform="translate(931.592902, 788.09013)"><g/></g></g><g fill="#df9c05" fill-opacity="1"><g transform="translate(950.550316, 788.09013)"><g><path d="M 46.046875 -38.390625 C 46.046875 -35.421875 45.335938 -32.632812 43.921875 -30.03125 C 42.515625 -27.425781 40.3125 -25.328125 37.3125 -23.734375 C 34.3125 -22.140625 30.53125 -21.34375 25.96875 -21.34375 L 16.640625 -21.34375 L 16.640625 0 L 5.5 0 L 5.5 -55.59375 L 25.96875 -55.59375 C 30.269531 -55.59375 33.929688 -54.847656 36.953125 -53.359375 C 39.984375 -51.878906 42.253906 -49.835938 43.765625 -47.234375 C 45.285156 -44.628906 46.046875 -41.679688 46.046875 -38.390625 Z M 25.484375 -30.34375 C 28.566406 -30.34375 30.851562 -31.046875 32.34375 -32.453125 C 33.832031 -33.867188 34.578125 -35.847656 34.578125 -38.390625 C 34.578125 -43.804688 31.546875 -46.515625 25.484375 -46.515625 L 16.640625 -46.515625 L 16.640625 -30.34375 Z M 25.484375 -30.34375 "/></g></g></g><g fill="#df9c05" fill-opacity="1"><g transform="translate(998.9794, 788.09013)"><g><path d="M 2.625 -22.21875 C 2.625 -26.6875 3.515625 -30.644531 5.296875 -34.09375 C 7.078125 -37.539062 9.492188 -40.191406 12.546875 -42.046875 C 15.597656 -43.910156 19.007812 -44.84375 22.78125 -44.84375 C 26.070312 -44.84375 28.953125 -44.175781 31.421875 -42.84375 C 33.890625 -41.519531 35.867188 -39.851562 37.359375 -37.84375 L 37.359375 -44.125 L 48.59375 -44.125 L 48.59375 0 L 37.359375 0 L 37.359375 -6.453125 C 35.921875 -4.378906 33.941406 -2.664062 31.421875 -1.3125 C 28.898438 0.0390625 25.992188 0.71875 22.703125 0.71875 C 18.984375 0.71875 15.597656 -0.234375 12.546875 -2.140625 C 9.492188 -4.054688 7.078125 -6.753906 5.296875 -10.234375 C 3.515625 -13.710938 2.625 -17.707031 2.625 -22.21875 Z M 37.359375 -22.0625 C 37.359375 -24.769531 36.828125 -27.09375 35.765625 -29.03125 C 34.703125 -30.96875 33.265625 -32.453125 31.453125 -33.484375 C 29.648438 -34.523438 27.71875 -35.046875 25.65625 -35.046875 C 23.582031 -35.046875 21.664062 -34.539062 19.90625 -33.53125 C 18.15625 -32.519531 16.734375 -31.046875 15.640625 -29.109375 C 14.554688 -27.171875 14.015625 -24.875 14.015625 -22.21875 C 14.015625 -19.5625 14.554688 -17.238281 15.640625 -15.25 C 16.734375 -13.257812 18.171875 -11.734375 19.953125 -10.671875 C 21.734375 -9.609375 23.632812 -9.078125 25.65625 -9.078125 C 27.71875 -9.078125 29.648438 -9.59375 31.453125 -10.625 C 33.265625 -11.664062 34.703125 -13.15625 35.765625 -15.09375 C 36.828125 -17.03125 37.359375 -19.351562 37.359375 -22.0625 Z M 37.359375 -22.0625 "/></g></g></g><g fill="#df9c05" fill-opacity="1"><g transform="translate(1052.984164, 788.09013)"><g><path d="M 2.625 -22.21875 C 2.625 -26.6875 3.515625 -30.644531 5.296875 -34.09375 C 7.078125 -37.539062 9.503906 -40.191406 12.578125 -42.046875 C 15.660156 -43.910156 19.085938 -44.84375 22.859375 -44.84375 C 25.722656 -44.84375 28.457031 -44.21875 31.0625 -42.96875 C 33.664062 -41.726562 35.738281 -40.070312 37.28125 -38 L 37.28125 -58.953125 L 48.59375 -58.953125 L 48.59375 0 L 37.28125 0 L 37.28125 -6.53125 C 35.894531 -4.351562 33.953125 -2.597656 31.453125 -1.265625 C 28.960938 0.0546875 26.070312 0.71875 22.78125 0.71875 C 19.0625 0.71875 15.660156 -0.234375 12.578125 -2.140625 C 9.503906 -4.054688 7.078125 -6.753906 5.296875 -10.234375 C 3.515625 -13.710938 2.625 -17.707031 2.625 -22.21875 Z M 37.359375 -22.0625 C 37.359375 -24.769531 36.828125 -27.09375 35.765625 -29.03125 C 34.703125 -30.96875 33.265625 -32.453125 31.453125 -33.484375 C 29.648438 -34.523438 27.71875 -35.046875 25.65625 -35.046875 C 23.582031 -35.046875 21.664062 -34.539062 19.90625 -33.53125 C 18.15625 -32.519531 16.734375 -31.046875 15.640625 -29.109375 C 14.554688 -27.171875 14.015625 -24.875 14.015625 -22.21875 C 14.015625 -19.5625 14.554688 -17.238281 15.640625 -15.25 C 16.734375 -13.257812 18.171875 -11.734375 19.953125 -10.671875 C 21.734375 -9.609375 23.632812 -9.078125 25.65625 -9.078125 C 27.71875 -9.078125 29.648438 -9.59375 31.453125 -10.625 C 33.265625 -11.664062 34.703125 -13.15625 35.765625 -15.09375 C 36.828125 -17.03125 37.359375 -19.351562 37.359375 -22.0625 Z M 37.359375 -22.0625 "/></g></g></g><g fill="#df9c05" fill-opacity="1"><g transform="translate(1106.988929, 788.09013)"><g><path d="M 2.625 -22.21875 C 2.625 -26.6875 3.515625 -30.644531 5.296875 -34.09375 C 7.078125 -37.539062 9.492188 -40.191406 12.546875 -42.046875 C 15.597656 -43.910156 19.007812 -44.84375 22.78125 -44.84375 C 26.070312 -44.84375 28.953125 -44.175781 31.421875 -42.84375 C 33.890625 -41.519531 35.867188 -39.851562 37.359375 -37.84375 L 37.359375 -44.125 L 48.59375 -44.125 L 48.59375 0 L 37.359375 0 L 37.359375 -6.453125 C 35.921875 -4.378906 33.941406 -2.664062 31.421875 -1.3125 C 28.898438 0.0390625 25.992188 0.71875 22.703125 0.71875 C 18.984375 0.71875 15.597656 -0.234375 12.546875 -2.140625 C 9.492188 -4.054688 7.078125 -6.753906 5.296875 -10.234375 C 3.515625 -13.710938 2.625 -17.707031 2.625 -22.21875 Z M 37.359375 -22.0625 C 37.359375 -24.769531 36.828125 -27.09375 35.765625 -29.03125 C 34.703125 -30.96875 33.265625 -32.453125 31.453125 -33.484375 C 29.648438 -34.523438 27.71875 -35.046875 25.65625 -35.046875 C 23.582031 -35.046875 21.664062 -34.539062 19.90625 -33.53125 C 18.15625 -32.519531 16.734375 -31.046875 15.640625 -29.109375 C 14.554688 -27.171875 14.015625 -24.875 14.015625 -22.21875 C 14.015625 -19.5625 14.554688 -17.238281 15.640625 -15.25 C 16.734375 -13.257812 18.171875 -11.734375 19.953125 -10.671875 C 21.734375 -9.609375 23.632812 -9.078125 25.65625 -9.078125 C 27.71875 -9.078125 29.648438 -9.59375 31.453125 -10.625 C 33.265625 -11.664062 34.703125 -13.15625 35.765625 -15.09375 C 36.828125 -17.03125 37.359375 -19.351562 37.359375 -22.0625 Z M 37.359375 -22.0625 "/></g></g></g><g fill="#df9c05" fill-opacity="1"><g transform="translate(1160.993693, 788.09013)"><g><path d="M 29.953125 -44.765625 C 35.210938 -44.765625 39.460938 -43.101562 42.703125 -39.78125 C 45.941406 -36.46875 47.5625 -31.835938 47.5625 -25.890625 L 47.5625 0 L 36.40625 0 L 36.40625 -24.375 C 36.40625 -27.875 35.523438 -30.566406 33.765625 -32.453125 C 32.015625 -34.335938 29.628906 -35.28125 26.609375 -35.28125 C 23.523438 -35.28125 21.09375 -34.335938 19.3125 -32.453125 C 17.53125 -30.566406 16.640625 -27.875 16.640625 -24.375 L 16.640625 0 L 5.5 0 L 5.5 -44.125 L 16.640625 -44.125 L 16.640625 -38.640625 C 18.128906 -40.546875 20.03125 -42.039062 22.34375 -43.125 C 24.65625 -44.21875 27.191406 -44.765625 29.953125 -44.765625 Z M 29.953125 -44.765625 "/></g></g></g><g fill="#df9c05" fill-opacity="1"><g transform="translate(1213.6443, 788.09013)"><g><path d="M 22.78125 -44.84375 C 26.070312 -44.84375 28.960938 -44.191406 31.453125 -42.890625 C 33.953125 -41.585938 35.921875 -39.90625 37.359375 -37.84375 L 37.359375 -44.125 L 48.59375 -44.125 L 48.59375 0.3125 C 48.59375 4.40625 47.769531 8.054688 46.125 11.265625 C 44.476562 14.484375 42.007812 17.035156 38.71875 18.921875 C 35.425781 20.804688 31.441406 21.75 26.765625 21.75 C 20.492188 21.75 15.351562 20.285156 11.34375 17.359375 C 7.34375 14.441406 5.078125 10.460938 4.546875 5.421875 L 15.609375 5.421875 C 16.191406 7.429688 17.453125 9.035156 19.390625 10.234375 C 21.328125 11.429688 23.679688 12.03125 26.453125 12.03125 C 29.691406 12.03125 32.316406 11.0625 34.328125 9.125 C 36.347656 7.1875 37.359375 4.25 37.359375 0.3125 L 37.359375 -6.53125 C 35.921875 -4.457031 33.941406 -2.726562 31.421875 -1.34375 C 28.898438 0.03125 26.019531 0.71875 22.78125 0.71875 C 19.0625 0.71875 15.660156 -0.234375 12.578125 -2.140625 C 9.503906 -4.054688 7.078125 -6.753906 5.296875 -10.234375 C 3.515625 -13.710938 2.625 -17.707031 2.625 -22.21875 C 2.625 -26.6875 3.515625 -30.644531 5.296875 -34.09375 C 7.078125 -37.539062 9.492188 -40.191406 12.546875 -42.046875 C 15.597656 -43.910156 19.007812 -44.84375 22.78125 -44.84375 Z M 37.359375 -22.0625 C 37.359375 -24.769531 36.828125 -27.09375 35.765625 -29.03125 C 34.703125 -30.96875 33.265625 -32.453125 31.453125 -33.484375 C 29.648438 -34.523438 27.71875 -35.046875 25.65625 -35.046875 C 23.582031 -35.046875 21.664062 -34.539062 19.90625 -33.53125 C 18.15625 -32.519531 16.734375 -31.046875 15.640625 -29.109375 C 14.554688 -27.171875 14.015625 -24.875 14.015625 -22.21875 C 14.015625 -19.5625 14.554688 -17.238281 15.640625 -15.25 C 16.734375 -13.257812 18.171875 -11.734375 19.953125 -10.671875 C 21.734375 -9.609375 23.632812 -9.078125 25.65625 -9.078125 C 27.71875 -9.078125 29.648438 -9.59375 31.453125 -10.625 C 33.265625 -11.664062 34.703125 -13.15625 35.765625 -15.09375 C 36.828125 -17.03125 37.359375 -19.351562 37.359375 -22.0625 Z M 37.359375 -22.0625 "/></g></g></g></svg>